<svg xmlns="http://www.w3.org/2000/svg" xmlns:xlink="http://www.w3.org/1999/xlink" version="1.1" style="overflow: hidden; position: relative; top: -0.78125px;" viewBox="-6 -90 996 739" width="996" height="739" preserveAspectRatio="xMinYMin"><path fill="none" stroke="#333333" d="M492,272L492,432" stroke-width="3" style="-webkit-tap-highlight-color: rgba(0, 0, 0, 0);"/><path fill="none" stroke="#333333" d="M132,432L852,432" stroke-width="3" style="-webkit-tap-highlight-color: rgba(0, 0, 0, 0);"/><path fill="none" stroke="#333333" d="M852,432L852,544" stroke-width="3" style="-webkit-tap-highlight-color: rgba(0, 0, 0, 0);"/><path fill="none" stroke="#333333" d="M612,432L612,544" stroke-width="3" style="-webkit-tap-highlight-color: rgba(0, 0, 0, 0);"/><path fill="none" stroke="#333333" d="M372,432L372,544" stroke-width="3" style="-webkit-tap-highlight-color: rgba(0, 0, 0, 0);"/><path fill="none" stroke="#333333" d="M132,432L132,544" stroke-width="3" style="-webkit-tap-highlight-color: rgba(0, 0, 0, 0);"/><path fill="none" stroke="#333333" d="M492,272L636,272" stroke-width="3" style="-webkit-tap-highlight-color: rgba(0, 0, 0, 0);"/><path fill="none" stroke="#333333" d="M348,272L492,272" stroke-width="3" style="-webkit-tap-highlight-color: rgba(0, 0, 0, 0);"/><path fill="none" stroke="#333333" d="M756,0L756,160" stroke-width="3" style="-webkit-tap-highlight-color: rgba(0, 0, 0, 0);"/><path fill="none" stroke="#333333" d="M636,160L876,160" stroke-width="3" style="-webkit-tap-highlight-color: rgba(0, 0, 0, 0);"/><path fill="none" stroke="#333333" d="M876,160L876,272" stroke-width="3" style="-webkit-tap-highlight-color: rgba(0, 0, 0, 0);"/><path fill="none" stroke="#333333" d="M636,160L636,272" stroke-width="3" style="-webkit-tap-highlight-color: rgba(0, 0, 0, 0);"/><path fill="none" stroke="#333333" d="M756,0L900,0" stroke-width="3" style="-webkit-tap-highlight-color: rgba(0, 0, 0, 0);"/><path fill="none" stroke="#333333" d="M612,0L756,0" stroke-width="3" style="-webkit-tap-highlight-color: rgba(0, 0, 0, 0);"/><path fill="none" stroke="#333333" d="M228,0L228,160" stroke-width="3" style="-webkit-tap-highlight-color: rgba(0, 0, 0, 0);"/><path fill="none" stroke="#333333" d="M108,160L348,160" stroke-width="3" style="-webkit-tap-highlight-color: rgba(0, 0, 0, 0);"/><path fill="none" stroke="#333333" d="M348,160L348,272" stroke-width="3" style="-webkit-tap-highlight-color: rgba(0, 0, 0, 0);"/><path fill="none" stroke="#333333" d="M108,160L108,272" stroke-width="3" style="-webkit-tap-highlight-color: rgba(0, 0, 0, 0);"/><path fill="none" stroke="#333333" d="M228,0L372,0" stroke-width="3" style="-webkit-tap-highlight-color: rgba(0, 0, 0, 0);"/><path fill="none" stroke="#333333" d="M84,0L228,0" stroke-width="3" style="-webkit-tap-highlight-color: rgba(0, 0, 0, 0);"/><desc style="-webkit-tap-highlight-color: rgba(0, 0, 0, 0);">Created with Raphaël 2.3.0</desc><defs style="-webkit-tap-highlight-color: rgba(0, 0, 0, 0);"><pattern id="op-hatch-E0F8F8" patternUnits="userSpaceOnUse" width="4" height="4" patternTransform="rotate(45)"><line x1="0" y1="0" x2="0" y2="4" stroke="#E0F8F8" stroke-width="1.3"/></pattern><linearGradient id="7w63l0-_ffffff:0-_B8B8B8:100" x1="0" y1="0" x2="1" y2="0" gradientTransform="matrix(1,0,0,1,0,0)" style="-webkit-tap-highlight-color: rgba(0, 0, 0, 0);"><stop offset="0%" stop-color="#ffffff" stop-opacity="1" style="-webkit-tap-highlight-color: rgba(0, 0, 0, 0);"/><stop offset="100%" stop-color="#b8b8b8" stop-opacity="1" style="-webkit-tap-highlight-color: rgba(0, 0, 0, 0);"/></linearGradient><linearGradient id="wcrf90-_ffffff:0-_B8B8B8:100" x1="0" y1="0" x2="1" y2="0" gradientTransform="matrix(1,0,0,1,0,0)" style="-webkit-tap-highlight-color: rgba(0, 0, 0, 0);"><stop offset="0%" stop-color="#ffffff" stop-opacity="1" style="-webkit-tap-highlight-color: rgba(0, 0, 0, 0);"/><stop offset="100%" stop-color="#b8b8b8" stop-opacity="1" style="-webkit-tap-highlight-color: rgba(0, 0, 0, 0);"/></linearGradient><linearGradient id="ugu5z0-_ffffff:0-_B8B8B8:100" x1="0" y1="0" x2="1" y2="0" gradientTransform="matrix(1,0,0,1,0,0)" style="-webkit-tap-highlight-color: rgba(0, 0, 0, 0);"><stop offset="0%" stop-color="#ffffff" stop-opacity="1" style="-webkit-tap-highlight-color: rgba(0, 0, 0, 0);"/><stop offset="100%" stop-color="#b8b8b8" stop-opacity="1" style="-webkit-tap-highlight-color: rgba(0, 0, 0, 0);"/></linearGradient><linearGradient id="wzyq80-_ffffff:0-_B8B8B8:100" x1="0" y1="0" x2="1" y2="0" gradientTransform="matrix(1,0,0,1,0,0)" style="-webkit-tap-highlight-color: rgba(0, 0, 0, 0);"><stop offset="0%" stop-color="#ffffff" stop-opacity="1" style="-webkit-tap-highlight-color: rgba(0, 0, 0, 0);"/><stop offset="100%" stop-color="#b8b8b8" stop-opacity="1" style="-webkit-tap-highlight-color: rgba(0, 0, 0, 0);"/></linearGradient><linearGradient id="s6v530-_ffffff:0-_B8B8B8:100" x1="0" y1="0" x2="1" y2="0" gradientTransform="matrix(1,0,0,1,0,0)" style="-webkit-tap-highlight-color: rgba(0, 0, 0, 0);"><stop offset="0%" stop-color="#ffffff" stop-opacity="1" style="-webkit-tap-highlight-color: rgba(0, 0, 0, 0);"/><stop offset="100%" stop-color="#b8b8b8" stop-opacity="1" style="-webkit-tap-highlight-color: rgba(0, 0, 0, 0);"/></linearGradient><linearGradient id="lc4uq0-_ffffff:0-_B8B8B8:100" x1="0" y1="0" x2="1" y2="0" gradientTransform="matrix(1,0,0,1,0,0)" style="-webkit-tap-highlight-color: rgba(0, 0, 0, 0);"><stop offset="0%" stop-color="#ffffff" stop-opacity="1" style="-webkit-tap-highlight-color: rgba(0, 0, 0, 0);"/><stop offset="100%" stop-color="#b8b8b8" stop-opacity="1" style="-webkit-tap-highlight-color: rgba(0, 0, 0, 0);"/></linearGradient><linearGradient id="1eqha0-_ffffff:0-_B8B8B8:100" x1="0" y1="0" x2="1" y2="0" gradientTransform="matrix(1,0,0,1,0,0)" style="-webkit-tap-highlight-color: rgba(0, 0, 0, 0);"><stop offset="0%" stop-color="#ffffff" stop-opacity="1" style="-webkit-tap-highlight-color: rgba(0, 0, 0, 0);"/><stop offset="100%" stop-color="#b8b8b8" stop-opacity="1" style="-webkit-tap-highlight-color: rgba(0, 0, 0, 0);"/></linearGradient><linearGradient id="nwio60-_ffffff:0-_B8B8B8:100" x1="0" y1="0" x2="1" y2="0" gradientTransform="matrix(1,0,0,1,0,0)" style="-webkit-tap-highlight-color: rgba(0, 0, 0, 0);"><stop offset="0%" stop-color="#ffffff" stop-opacity="1" style="-webkit-tap-highlight-color: rgba(0, 0, 0, 0);"/><stop offset="100%" stop-color="#b8b8b8" stop-opacity="1" style="-webkit-tap-highlight-color: rgba(0, 0, 0, 0);"/></linearGradient><linearGradient id="ly7a00-_ffffff:0-_B8B8B8:100" x1="0" y1="0" x2="1" y2="0" gradientTransform="matrix(1,0,0,1,0,0)" style="-webkit-tap-highlight-color: rgba(0, 0, 0, 0);"><stop offset="0%" stop-color="#ffffff" stop-opacity="1" style="-webkit-tap-highlight-color: rgba(0, 0, 0, 0);"/><stop offset="100%" stop-color="#b8b8b8" stop-opacity="1" style="-webkit-tap-highlight-color: rgba(0, 0, 0, 0);"/></linearGradient><linearGradient id="ltwvz0-_ffffff:0-_B8B8B8:100" x1="0" y1="0" x2="1" y2="0" gradientTransform="matrix(1,0,0,1,0,0)" style="-webkit-tap-highlight-color: rgba(0, 0, 0, 0);"><stop offset="0%" stop-color="#ffffff" stop-opacity="1" style="-webkit-tap-highlight-color: rgba(0, 0, 0, 0);"/><stop offset="100%" stop-color="#b8b8b8" stop-opacity="1" style="-webkit-tap-highlight-color: rgba(0, 0, 0, 0);"/></linearGradient><linearGradient id="92kch0-_ffffff:0-_B8B8B8:100" x1="0" y1="0" x2="1" y2="0" gradientTransform="matrix(1,0,0,1,0,0)" style="-webkit-tap-highlight-color: rgba(0, 0, 0, 0);"><stop offset="0%" stop-color="#ffffff" stop-opacity="1" style="-webkit-tap-highlight-color: rgba(0, 0, 0, 0);"/><stop offset="100%" stop-color="#b8b8b8" stop-opacity="1" style="-webkit-tap-highlight-color: rgba(0, 0, 0, 0);"/></linearGradient><linearGradient id="tinxk0-_ffffff:0-_B8B8B8:100" x1="0" y1="0" x2="1" y2="0" gradientTransform="matrix(1,0,0,1,0,0)" style="-webkit-tap-highlight-color: rgba(0, 0, 0, 0);"><stop offset="0%" stop-color="#ffffff" stop-opacity="1" style="-webkit-tap-highlight-color: rgba(0, 0, 0, 0);"/><stop offset="100%" stop-color="#b8b8b8" stop-opacity="1" style="-webkit-tap-highlight-color: rgba(0, 0, 0, 0);"/></linearGradient><linearGradient id="pbrsr0-_ffffff:0-_B8B8B8:100" x1="0" y1="0" x2="1" y2="0" gradientTransform="matrix(1,0,0,1,0,0)" style="-webkit-tap-highlight-color: rgba(0, 0, 0, 0);"><stop offset="0%" stop-color="#ffffff" stop-opacity="1" style="-webkit-tap-highlight-color: rgba(0, 0, 0, 0);"/><stop offset="100%" stop-color="#b8b8b8" stop-opacity="1" style="-webkit-tap-highlight-color: rgba(0, 0, 0, 0);"/></linearGradient><linearGradient id="lkj210-_ffffff:0-_B8B8B8:100" x1="0" y1="0" x2="1" y2="0" gradientTransform="matrix(1,0,0,1,0,0)" style="-webkit-tap-highlight-color: rgba(0, 0, 0, 0);"><stop offset="0%" stop-color="#ffffff" stop-opacity="1" style="-webkit-tap-highlight-color: rgba(0, 0, 0, 0);"/><stop offset="100%" stop-color="#b8b8b8" stop-opacity="1" style="-webkit-tap-highlight-color: rgba(0, 0, 0, 0);"/></linearGradient><linearGradient id="b2skz0-_ffffff:0-_B8B8B8:100" x1="0" y1="0" x2="1" y2="0" gradientTransform="matrix(1,0,0,1,0,0)" style="-webkit-tap-highlight-color: rgba(0, 0, 0, 0);"><stop offset="0%" stop-color="#ffffff" stop-opacity="1" style="-webkit-tap-highlight-color: rgba(0, 0, 0, 0);"/><stop offset="100%" stop-color="#b8b8b8" stop-opacity="1" style="-webkit-tap-highlight-color: rgba(0, 0, 0, 0);"/></linearGradient><linearGradient id="aeziv0-_ffffff:0-_B8B8B8:100" x1="0" y1="0" x2="1" y2="0" gradientTransform="matrix(1,0,0,1,0,0)" style="-webkit-tap-highlight-color: rgba(0, 0, 0, 0);"><stop offset="0%" stop-color="#ffffff" stop-opacity="1" style="-webkit-tap-highlight-color: rgba(0, 0, 0, 0);"/><stop offset="100%" stop-color="#b8b8b8" stop-opacity="1" style="-webkit-tap-highlight-color: rgba(0, 0, 0, 0);"/></linearGradient><linearGradient id="pzcf60-_ffffff:0-_B8B8B8:100" x1="0" y1="0" x2="1" y2="0" gradientTransform="matrix(1,0,0,1,0,0)" style="-webkit-tap-highlight-color: rgba(0, 0, 0, 0);"><stop offset="0%" stop-color="#ffffff" stop-opacity="1" style="-webkit-tap-highlight-color: rgba(0, 0, 0, 0);"/><stop offset="100%" stop-color="#b8b8b8" stop-opacity="1" style="-webkit-tap-highlight-color: rgba(0, 0, 0, 0);"/></linearGradient><linearGradient id="g47c30-_ffffff:0-_B8B8B8:100" x1="0" y1="0" x2="1" y2="0" gradientTransform="matrix(1,0,0,1,0,0)" style="-webkit-tap-highlight-color: rgba(0, 0, 0, 0);"><stop offset="0%" stop-color="#ffffff" stop-opacity="1" style="-webkit-tap-highlight-color: rgba(0, 0, 0, 0);"/><stop offset="100%" stop-color="#b8b8b8" stop-opacity="1" style="-webkit-tap-highlight-color: rgba(0, 0, 0, 0);"/></linearGradient><linearGradient id="82wda0-_ffffff:0-_B8B8B8:100" x1="0" y1="0" x2="1" y2="0" gradientTransform="matrix(1,0,0,1,0,0)" style="-webkit-tap-highlight-color: rgba(0, 0, 0, 0);"><stop offset="0%" stop-color="#ffffff" stop-opacity="1" style="-webkit-tap-highlight-color: rgba(0, 0, 0, 0);"/><stop offset="100%" stop-color="#b8b8b8" stop-opacity="1" style="-webkit-tap-highlight-color: rgba(0, 0, 0, 0);"/></linearGradient><linearGradient id="5ikk90-_ffffff:0-_B8B8B8:100" x1="0" y1="0" x2="1" y2="0" gradientTransform="matrix(1,0,0,1,0,0)" style="-webkit-tap-highlight-color: rgba(0, 0, 0, 0);"><stop offset="0%" stop-color="#ffffff" stop-opacity="1" style="-webkit-tap-highlight-color: rgba(0, 0, 0, 0);"/><stop offset="100%" stop-color="#b8b8b8" stop-opacity="1" style="-webkit-tap-highlight-color: rgba(0, 0, 0, 0);"/></linearGradient><linearGradient id="2wl810-_ffffff:0-_B8B8B8:100" x1="0" y1="0" x2="1" y2="0" gradientTransform="matrix(1,0,0,1,0,0)" style="-webkit-tap-highlight-color: rgba(0, 0, 0, 0);"><stop offset="0%" stop-color="#ffffff" stop-opacity="1" style="-webkit-tap-highlight-color: rgba(0, 0, 0, 0);"/><stop offset="100%" stop-color="#b8b8b8" stop-opacity="1" style="-webkit-tap-highlight-color: rgba(0, 0, 0, 0);"/></linearGradient><linearGradient id="dmtj60-_ffffff:0-_B8B8B8:100" x1="0" y1="0" x2="1" y2="0" gradientTransform="matrix(1,0,0,1,0,0)" style="-webkit-tap-highlight-color: rgba(0, 0, 0, 0);"><stop offset="0%" stop-color="#ffffff" stop-opacity="1" style="-webkit-tap-highlight-color: rgba(0, 0, 0, 0);"/><stop offset="100%" stop-color="#b8b8b8" stop-opacity="1" style="-webkit-tap-highlight-color: rgba(0, 0, 0, 0);"/></linearGradient><linearGradient id="84ww80-_ffffff:0-_B8B8B8:100" x1="0" y1="0" x2="1" y2="0" gradientTransform="matrix(1,0,0,1,0,0)" style="-webkit-tap-highlight-color: rgba(0, 0, 0, 0);"><stop offset="0%" stop-color="#ffffff" stop-opacity="1" style="-webkit-tap-highlight-color: rgba(0, 0, 0, 0);"/><stop offset="100%" stop-color="#b8b8b8" stop-opacity="1" style="-webkit-tap-highlight-color: rgba(0, 0, 0, 0);"/></linearGradient><linearGradient id="4py790-_ffffff:0-_B8B8B8:100" x1="0" y1="0" x2="1" y2="0" gradientTransform="matrix(1,0,0,1,0,0)" style="-webkit-tap-highlight-color: rgba(0, 0, 0, 0);"><stop offset="0%" stop-color="#ffffff" stop-opacity="1" style="-webkit-tap-highlight-color: rgba(0, 0, 0, 0);"/><stop offset="100%" stop-color="#b8b8b8" stop-opacity="1" style="-webkit-tap-highlight-color: rgba(0, 0, 0, 0);"/></linearGradient></defs><rect x="-6" y="-90" width="180" height="180" rx="5" ry="5" fill="#808080" stroke="none" opacity="0" fill-opacity="0.35" style="-webkit-tap-highlight-color: rgba(0, 0, 0, 0); opacity: 0; fill-opacity: 0.35;"/><rect x="44" y="-40" width="80" height="80" rx="0" ry="0" fill="#808080" stroke="none" opacity="0.3" fill-opacity="1" stroke-width="3" transform="matrix(1,0,0,1,3,3)" style="-webkit-tap-highlight-color: rgba(0, 0, 0, 0); opacity: 0.3; fill-opacity: 1;"/><rect x="44" y="-40" width="80" height="80" rx="0" ry="0" fill="url('#7w63l0-_ffffff:0-_B8B8B8:100')" stroke="#333333" opacity="1" fill-opacity="1" stroke-width="3" style="-webkit-tap-highlight-color: rgba(0, 0, 0, 0); opacity: 1; fill-opacity: 1;"/><path fill="url(#op-hatch-E0F8F8)" stroke="none" d="M123.4,0L84,0L123.4,0L123.4,-39.4L44.6,-39.4L44.6,39.4L123.4,39.4L123.4,0Z" stroke-width="0" style="-webkit-tap-highlight-color: rgba(0, 0, 0, 0);"/><text x="84" y="72" text-anchor="middle" font-family="Arial" font-size="20px" stroke="none" fill="#000000" style="-webkit-tap-highlight-color: rgba(0, 0, 0, 0); text-anchor: middle; font-family: Arial; font-size: 20px;" class="pii-name" transform="matrix(1,0,0,1,0,0)"><tspan dy="6.666664123535156" style="-webkit-tap-highlight-color: rgba(0, 0, 0, 0);">I-1</tspan></text><rect x="-6" y="-90" width="180" height="180" rx="0" ry="0" fill="#008000" stroke="none" opacity="0" fill-opacity="0.35" transform="matrix(1,0,0,1,0,0)" style="-webkit-tap-highlight-color: rgba(0, 0, 0, 0); opacity: 0; fill-opacity: 0.35;"/><rect x="282" y="-90" width="180" height="180" rx="5" ry="5" fill="#808080" stroke="none" opacity="0" fill-opacity="0.35" style="-webkit-tap-highlight-color: rgba(0, 0, 0, 0); opacity: 0; fill-opacity: 0.35;"/><circle cx="372" cy="0" r="40" fill="#808080" stroke="none" opacity="0.3" fill-opacity="1" stroke-width="3" transform="matrix(1,0,0,1,3,3)" style="-webkit-tap-highlight-color: rgba(0, 0, 0, 0); opacity: 0.3; fill-opacity: 1;"/><circle cx="372" cy="0" r="40" fill="url('#ugu5z0-_ffffff:0-_B8B8B8:100')" stroke="#333333" opacity="1" fill-opacity="1" stroke-width="3" style="-webkit-tap-highlight-color: rgba(0, 0, 0, 0); opacity: 1; fill-opacity: 1;"/><text x="372" y="72" text-anchor="middle" font-family="Arial" font-size="20px" stroke="none" fill="#000000" style="-webkit-tap-highlight-color: rgba(0, 0, 0, 0); text-anchor: middle; font-family: Arial; font-size: 20px;" class="pii-name" transform="matrix(1,0,0,1,0,0)"><tspan dy="6.666664123535156" style="-webkit-tap-highlight-color: rgba(0, 0, 0, 0);">I-2</tspan></text><rect x="282" y="-90" width="180" height="180" rx="0" ry="0" fill="#008000" stroke="none" opacity="0" fill-opacity="0.35" transform="matrix(1,0,0,1,0,0)" style="-webkit-tap-highlight-color: rgba(0, 0, 0, 0); opacity: 0; fill-opacity: 0.35;"/><rect x="522" y="-90" width="180" height="180" rx="5" ry="5" fill="#808080" stroke="none" opacity="0" fill-opacity="0.35" style="-webkit-tap-highlight-color: rgba(0, 0, 0, 0); opacity: 0; fill-opacity: 0.35;"/><rect x="572" y="-40" width="80" height="80" rx="0" ry="0" fill="#808080" stroke="none" opacity="0.3" fill-opacity="1" stroke-width="3" transform="matrix(1,0,0,1,3,3)" style="-webkit-tap-highlight-color: rgba(0, 0, 0, 0); opacity: 0.3; fill-opacity: 1;"/><rect x="572" y="-40" width="80" height="80" rx="0" ry="0" fill="url('#s6v530-_ffffff:0-_B8B8B8:100')" stroke="#333333" opacity="1" fill-opacity="1" stroke-width="3" style="-webkit-tap-highlight-color: rgba(0, 0, 0, 0); opacity: 1; fill-opacity: 1;"/><text x="612" y="72" text-anchor="middle" font-family="Arial" font-size="20px" stroke="none" fill="#000000" style="-webkit-tap-highlight-color: rgba(0, 0, 0, 0); text-anchor: middle; font-family: Arial; font-size: 20px;" class="pii-name" transform="matrix(1,0,0,1,0,0)"><tspan dy="6.666664123535156" style="-webkit-tap-highlight-color: rgba(0, 0, 0, 0);">I-3</tspan></text><rect x="522" y="-90" width="180" height="180" rx="0" ry="0" fill="#008000" stroke="none" opacity="0" fill-opacity="0.35" transform="matrix(1,0,0,1,0,0)" style="-webkit-tap-highlight-color: rgba(0, 0, 0, 0); opacity: 0; fill-opacity: 0.35;"/><rect x="810" y="-90" width="180" height="180" rx="5" ry="5" fill="#808080" stroke="none" opacity="0" fill-opacity="0.35" style="-webkit-tap-highlight-color: rgba(0, 0, 0, 0); opacity: 0; fill-opacity: 0.35;"/><circle cx="900" cy="0" r="40" fill="#808080" stroke="none" opacity="0.3" fill-opacity="1" stroke-width="3" transform="matrix(1,0,0,1,3,3)" style="-webkit-tap-highlight-color: rgba(0, 0, 0, 0); opacity: 0.3; fill-opacity: 1;"/><circle cx="900" cy="0" r="40" fill="url('#1eqha0-_ffffff:0-_B8B8B8:100')" stroke="#333333" opacity="1" fill-opacity="1" stroke-width="3" style="-webkit-tap-highlight-color: rgba(0, 0, 0, 0); opacity: 1; fill-opacity: 1;"/><circle cx="900" cy="0" r="39.4" fill="url(#op-hatch-E0F8F8)" stroke="none" stroke-width="0" style="-webkit-tap-highlight-color: rgba(0, 0, 0, 0);"/><text x="900" y="72" text-anchor="middle" font-family="Arial" font-size="20px" stroke="none" fill="#000000" style="-webkit-tap-highlight-color: rgba(0, 0, 0, 0); text-anchor: middle; font-family: Arial; font-size: 20px;" class="pii-name" transform="matrix(1,0,0,1,0,0)"><tspan dy="6.666664123535156" style="-webkit-tap-highlight-color: rgba(0, 0, 0, 0);">I-4</tspan></text><rect x="810" y="-90" width="180" height="180" rx="0" ry="0" fill="#008000" stroke="none" opacity="0" fill-opacity="0.35" transform="matrix(1,0,0,1,0,0)" style="-webkit-tap-highlight-color: rgba(0, 0, 0, 0); opacity: 0; fill-opacity: 0.35;"/><rect x="258" y="182" width="180" height="180" rx="5" ry="5" fill="#808080" stroke="none" opacity="0" fill-opacity="0.35" style="-webkit-tap-highlight-color: rgba(0, 0, 0, 0); opacity: 0; fill-opacity: 0.35;"/><rect x="308" y="232" width="80" height="80" rx="0" ry="0" fill="#808080" stroke="none" opacity="0.3" fill-opacity="1" stroke-width="3" transform="matrix(1,0,0,1,3,3)" style="-webkit-tap-highlight-color: rgba(0, 0, 0, 0); opacity: 0.3; fill-opacity: 1;"/><rect x="308" y="232" width="80" height="80" rx="0" ry="0" fill="url('#ly7a00-_ffffff:0-_B8B8B8:100')" stroke="#333333" opacity="1" fill-opacity="1" stroke-width="3" style="-webkit-tap-highlight-color: rgba(0, 0, 0, 0); opacity: 1; fill-opacity: 1;"/><path fill="url(#op-hatch-E0F8F8)" stroke="none" d="M387.4,272L348,272L387.4,272L387.4,232.6L308.6,232.6L308.6,311.4L387.4,311.4L387.4,272Z" stroke-width="0" style="-webkit-tap-highlight-color: rgba(0, 0, 0, 0);"/><text x="348" y="344" text-anchor="middle" font-family="Arial" font-size="20px" stroke="none" fill="#000000" style="-webkit-tap-highlight-color: rgba(0, 0, 0, 0); text-anchor: middle; font-family: Arial; font-size: 20px;" class="pii-name" transform="matrix(1,0,0,1,0,0)"><tspan dy="6.666656494140625" style="-webkit-tap-highlight-color: rgba(0, 0, 0, 0);">II-1</tspan></text><rect x="258" y="182" width="180" height="180" rx="0" ry="0" fill="#008000" stroke="none" opacity="0" fill-opacity="0.35" transform="matrix(1,0,0,1,0,0)" style="-webkit-tap-highlight-color: rgba(0, 0, 0, 0); opacity: 0; fill-opacity: 0.35;"/><rect x="546" y="182" width="180" height="180" rx="5" ry="5" fill="#808080" stroke="none" opacity="0" fill-opacity="0.35" style="-webkit-tap-highlight-color: rgba(0, 0, 0, 0); opacity: 0; fill-opacity: 0.35;"/><circle cx="636" cy="272" r="40" fill="#808080" stroke="none" opacity="0.3" fill-opacity="1" stroke-width="3" transform="matrix(1,0,0,1,3,3)" style="-webkit-tap-highlight-color: rgba(0, 0, 0, 0); opacity: 0.3; fill-opacity: 1;"/><circle cx="636" cy="272" r="40" fill="url('#92kch0-_ffffff:0-_B8B8B8:100')" stroke="#333333" opacity="1" fill-opacity="1" stroke-width="3" style="-webkit-tap-highlight-color: rgba(0, 0, 0, 0); opacity: 1; fill-opacity: 1;"/><circle cx="636" cy="272" r="39.4" fill="url(#op-hatch-E0F8F8)" stroke="none" stroke-width="0" style="-webkit-tap-highlight-color: rgba(0, 0, 0, 0);"/><text x="636" y="344" text-anchor="middle" font-family="Arial" font-size="20px" stroke="none" fill="#000000" style="-webkit-tap-highlight-color: rgba(0, 0, 0, 0); text-anchor: middle; font-family: Arial; font-size: 20px;" class="pii-name" transform="matrix(1,0,0,1,0,0)"><tspan dy="6.666656494140625" style="-webkit-tap-highlight-color: rgba(0, 0, 0, 0);">II-2</tspan></text><rect x="546" y="182" width="180" height="180" rx="0" ry="0" fill="#008000" stroke="none" opacity="0" fill-opacity="0.35" transform="matrix(1,0,0,1,0,0)" style="-webkit-tap-highlight-color: rgba(0, 0, 0, 0); opacity: 0; fill-opacity: 0.35;"/><rect x="18" y="182" width="180" height="180" rx="5" ry="5" fill="#808080" stroke="none" opacity="0" fill-opacity="0.35" style="-webkit-tap-highlight-color: rgba(0, 0, 0, 0); opacity: 0; fill-opacity: 0.35;"/><circle cx="108" cy="272" r="40" fill="#808080" stroke="none" opacity="0.3" fill-opacity="1" stroke-width="3" transform="matrix(1,0,0,1,3,3)" style="-webkit-tap-highlight-color: rgba(0, 0, 0, 0); opacity: 0.3; fill-opacity: 1;"/><circle cx="108" cy="272" r="40" fill="url('#pbrsr0-_ffffff:0-_B8B8B8:100')" stroke="#333333" opacity="1" fill-opacity="1" stroke-width="3" style="-webkit-tap-highlight-color: rgba(0, 0, 0, 0); opacity: 1; fill-opacity: 1;"/><text x="108" y="344" text-anchor="middle" font-family="Arial" font-size="20px" stroke="none" fill="#000000" style="-webkit-tap-highlight-color: rgba(0, 0, 0, 0); text-anchor: middle; font-family: Arial; font-size: 20px;" class="pii-name" transform="matrix(1,0,0,1,0,0)"><tspan dy="6.666656494140625" style="-webkit-tap-highlight-color: rgba(0, 0, 0, 0);">II-3</tspan></text><rect x="18" y="182" width="180" height="180" rx="0" ry="0" fill="#008000" stroke="none" opacity="0" fill-opacity="0.35" transform="matrix(1,0,0,1,0,0)" style="-webkit-tap-highlight-color: rgba(0, 0, 0, 0); opacity: 0; fill-opacity: 0.35;"/><rect x="786" y="182" width="180" height="180" rx="5" ry="5" fill="#808080" stroke="none" opacity="0" fill-opacity="0.35" style="-webkit-tap-highlight-color: rgba(0, 0, 0, 0); opacity: 0; fill-opacity: 0.35;"/><rect x="836" y="232" width="80" height="80" rx="0" ry="0" fill="#808080" stroke="none" opacity="0.3" fill-opacity="1" stroke-width="3" transform="matrix(1,0,0,1,3,3)" style="-webkit-tap-highlight-color: rgba(0, 0, 0, 0); opacity: 0.3; fill-opacity: 1;"/><rect x="836" y="232" width="80" height="80" rx="0" ry="0" fill="url('#b2skz0-_ffffff:0-_B8B8B8:100')" stroke="#333333" opacity="1" fill-opacity="1" stroke-width="3" style="-webkit-tap-highlight-color: rgba(0, 0, 0, 0); opacity: 1; fill-opacity: 1;"/><text x="876" y="344" text-anchor="middle" font-family="Arial" font-size="20px" stroke="none" fill="#000000" style="-webkit-tap-highlight-color: rgba(0, 0, 0, 0); text-anchor: middle; font-family: Arial; font-size: 20px;" class="pii-name" transform="matrix(1,0,0,1,0,0)"><tspan dy="6.666656494140625" style="-webkit-tap-highlight-color: rgba(0, 0, 0, 0);">II-4</tspan></text><rect x="786" y="182" width="180" height="180" rx="0" ry="0" fill="#008000" stroke="none" opacity="0" fill-opacity="0.35" transform="matrix(1,0,0,1,0,0)" style="-webkit-tap-highlight-color: rgba(0, 0, 0, 0); opacity: 0; fill-opacity: 0.35;"/><rect x="762" y="454" width="180" height="180" rx="5" ry="5" fill="#808080" stroke="none" opacity="0" fill-opacity="0.35" style="-webkit-tap-highlight-color: rgba(0, 0, 0, 0); opacity: 0; fill-opacity: 0.35;"/><rect x="812" y="504" width="80" height="80" rx="0" ry="0" fill="#808080" stroke="none" opacity="0.3" fill-opacity="1" stroke-width="3" transform="matrix(1,0,0,1,3,3)" style="-webkit-tap-highlight-color: rgba(0, 0, 0, 0); opacity: 0.3; fill-opacity: 1;"/><rect x="812" y="504" width="80" height="80" rx="0" ry="0" fill="url('#pzcf60-_ffffff:0-_B8B8B8:100')" stroke="#333333" opacity="1" fill-opacity="1" stroke-width="5.092592592592593" style="-webkit-tap-highlight-color: rgba(0, 0, 0, 0); opacity: 1; fill-opacity: 1;" transform="matrix(1.08,0,0,1.08,-68.16,-43.52)"/><path fill="#595959" stroke="none" d="M9.182800000000002,25.3319C9.182800000000002,25.3319,0.8701000000000001,33.6424,0.8701000000000001,33.6424C0.8701000000000001,33.6424,3.8665000000000003,36.6388,3.8665000000000003,36.6388C3.8665000000000003,36.6388,12.177000000000001,28.3272,12.17744,28.3272C12.177000000000001,28.3272,14.425400000000002,30.574500000000004,14.425400000000002,30.574500000000004C14.425400000000002,30.574500000000004,17.1578,20.376400000000004,17.1578,20.376400000000004C17.1578,20.376400000000004,6.959700000000001,23.108800000000002,6.959700000000001,23.108800000000002C6.959700000000001,23.108800000000002,9.182800000000002,25.3319,9.182800000000002,25.331350000000004C9.182800000000002,25.3319,9.182800000000002,25.3319,9.182800000000002,25.3319" opacity="1" transform="matrix(1,0,0,1,786,572)" style="-webkit-tap-highlight-color: rgba(0, 0, 0, 0); opacity: 1;"/><text x="777" y="605" text-anchor="middle" font-family="Arial" font-size="22px" stroke="none" fill="#595959" style="-webkit-tap-highlight-color: rgba(0, 0, 0, 0); text-anchor: middle; font-family: Arial; font-size: 22px; font-weight: bold;" font-weight="bold"><tspan dy="7.3333330154418945" style="-webkit-tap-highlight-color: rgba(0, 0, 0, 0);">P</tspan></text><path fill="#e0f8f8" stroke="none" d="M891.4,544L852,544L891.4,544L891.4,504.6L812.6,504.6L812.6,583.4L891.4,583.4L891.4,544Z" stroke-width="0" transform="matrix(1.04,0,0,1.04,-34.08,-21.76)" style="-webkit-tap-highlight-color: rgba(0, 0, 0, 0);"/><text x="852" y="616" text-anchor="middle" font-family="Arial" font-size="20px" stroke="none" fill="#000000" style="-webkit-tap-highlight-color: rgba(0, 0, 0, 0); text-anchor: middle; font-family: Arial; font-size: 20px;" class="pii-name" transform="matrix(1,0,0,1,0,0)"><tspan dy="6.6666259765625" style="-webkit-tap-highlight-color: rgba(0, 0, 0, 0);">III-1</tspan></text><text x="852" y="639" text-anchor="middle" font-family="Arial" font-size="17px" stroke="none" fill="#81a270" style="-webkit-tap-highlight-color: rgba(0, 0, 0, 0); text-anchor: middle; font-family: Arial; font-size: 17px; font-style: italic;" font-style="italic" class="gene-label" transform="matrix(1,0,0,1,0,0)"><tspan dy="6" style="-webkit-tap-highlight-color: rgba(0, 0, 0, 0);">CFTR</tspan></text><rect x="762" y="454" width="180" height="180" rx="0" ry="0" fill="#008000" stroke="none" opacity="0" fill-opacity="0.35" transform="matrix(1,0,0,1,0,0)" style="-webkit-tap-highlight-color: rgba(0, 0, 0, 0); opacity: 0; fill-opacity: 0.35;"/><rect x="522" y="454" width="180" height="180" rx="5" ry="5" fill="#808080" stroke="none" opacity="0" fill-opacity="0.35" style="-webkit-tap-highlight-color: rgba(0, 0, 0, 0); opacity: 0; fill-opacity: 0.35;"/><circle cx="612" cy="544" r="40" fill="#808080" stroke="none" opacity="0.3" fill-opacity="1" stroke-width="3" transform="matrix(1,0,0,1,3,3)" style="-webkit-tap-highlight-color: rgba(0, 0, 0, 0); opacity: 0.3; fill-opacity: 1;"/><circle cx="612" cy="544" r="40" fill="url('#82wda0-_ffffff:0-_B8B8B8:100')" stroke="#333333" opacity="1" fill-opacity="1" stroke-width="3" style="-webkit-tap-highlight-color: rgba(0, 0, 0, 0); opacity: 1; fill-opacity: 1;"/><circle cx="612" cy="544" r="39.4" fill="url(#op-hatch-E0F8F8)" stroke="none" stroke-width="0" style="-webkit-tap-highlight-color: rgba(0, 0, 0, 0);"/><text x="612" y="616" text-anchor="middle" font-family="Arial" font-size="20px" stroke="none" fill="#000000" style="-webkit-tap-highlight-color: rgba(0, 0, 0, 0); text-anchor: middle; font-family: Arial; font-size: 20px;" class="pii-name" transform="matrix(1,0,0,1,0,0)"><tspan dy="6.6666259765625" style="-webkit-tap-highlight-color: rgba(0, 0, 0, 0);">III-2</tspan></text><rect x="522" y="454" width="180" height="180" rx="0" ry="0" fill="#008000" stroke="none" opacity="0" fill-opacity="0.35" transform="matrix(1,0,0,1,0,0)" style="-webkit-tap-highlight-color: rgba(0, 0, 0, 0); opacity: 0; fill-opacity: 0.35;"/><rect x="282" y="454" width="180" height="180" rx="5" ry="5" fill="#808080" stroke="none" opacity="0" fill-opacity="0.35" style="-webkit-tap-highlight-color: rgba(0, 0, 0, 0); opacity: 0; fill-opacity: 0.35;"/><rect x="332" y="504" width="80" height="80" rx="0" ry="0" fill="#808080" stroke="none" opacity="0.3" fill-opacity="1" stroke-width="3" transform="matrix(1,0,0,1,3,3)" style="-webkit-tap-highlight-color: rgba(0, 0, 0, 0); opacity: 0.3; fill-opacity: 1;"/><rect x="332" y="504" width="80" height="80" rx="0" ry="0" fill="url('#2wl810-_ffffff:0-_B8B8B8:100')" stroke="#333333" opacity="1" fill-opacity="1" stroke-width="3" style="-webkit-tap-highlight-color: rgba(0, 0, 0, 0); opacity: 1; fill-opacity: 1;"/><text x="372" y="616" text-anchor="middle" font-family="Arial" font-size="20px" stroke="none" fill="#000000" style="-webkit-tap-highlight-color: rgba(0, 0, 0, 0); text-anchor: middle; font-family: Arial; font-size: 20px;" class="pii-name" transform="matrix(1,0,0,1,0,0)"><tspan dy="6.6666259765625" style="-webkit-tap-highlight-color: rgba(0, 0, 0, 0);">III-3</tspan></text><rect x="282" y="454" width="180" height="180" rx="0" ry="0" fill="#008000" stroke="none" opacity="0" fill-opacity="0.35" transform="matrix(1,0,0,1,0,0)" style="-webkit-tap-highlight-color: rgba(0, 0, 0, 0); opacity: 0; fill-opacity: 0.35;"/><rect x="42" y="454" width="180" height="180" rx="5" ry="5" fill="#808080" stroke="none" opacity="0" fill-opacity="0.35" style="-webkit-tap-highlight-color: rgba(0, 0, 0, 0); opacity: 0; fill-opacity: 0.35;"/><circle cx="132" cy="544" r="40" fill="#808080" stroke="none" opacity="0.3" fill-opacity="1" stroke-width="3" transform="matrix(1,0,0,1,3,3)" style="-webkit-tap-highlight-color: rgba(0, 0, 0, 0); opacity: 0.3; fill-opacity: 1;"/><circle cx="132" cy="544" r="40" fill="url('#84ww80-_ffffff:0-_B8B8B8:100')" stroke="#333333" opacity="1" fill-opacity="1" stroke-width="3" style="-webkit-tap-highlight-color: rgba(0, 0, 0, 0); opacity: 1; fill-opacity: 1;"/><circle cx="132" cy="544" r="39.4" fill="#e0f8f8" stroke="none" stroke-width="0" style="-webkit-tap-highlight-color: rgba(0, 0, 0, 0);"/><text x="132" y="616" text-anchor="middle" font-family="Arial" font-size="20px" stroke="none" fill="#000000" style="-webkit-tap-highlight-color: rgba(0, 0, 0, 0); text-anchor: middle; font-family: Arial; font-size: 20px;" class="pii-name" transform="matrix(1,0,0,1,0,0)"><tspan dy="6.6666259765625" style="-webkit-tap-highlight-color: rgba(0, 0, 0, 0);">III-4</tspan></text><text x="132" y="639" text-anchor="middle" font-family="Arial" font-size="17px" stroke="none" fill="#81a270" style="-webkit-tap-highlight-color: rgba(0, 0, 0, 0); text-anchor: middle; font-family: Arial; font-size: 17px; font-style: italic;" font-style="italic" class="gene-label" transform="matrix(1,0,0,1,0,0)"><tspan dy="6" style="-webkit-tap-highlight-color: rgba(0, 0, 0, 0);">CFTR</tspan></text><rect x="42" y="454" width="180" height="180" rx="0" ry="0" fill="#008000" stroke="none" opacity="0" fill-opacity="0.35" transform="matrix(1,0,0,1,0,0)" style="-webkit-tap-highlight-color: rgba(0, 0, 0, 0); opacity: 0; fill-opacity: 0.35;"/><rect x="202" y="-32" width="52" height="92" rx="5" ry="5" fill="#808080" stroke="none" opacity="0" fill-opacity="0.35" style="-webkit-tap-highlight-color: rgba(0, 0, 0, 0); opacity: 0; fill-opacity: 0.35;"/><circle cx="228" cy="0" r="6.5" fill="#dc7868" stroke="#000000" stroke-width="2" style="-webkit-tap-highlight-color: rgba(0, 0, 0, 0);"/><text x="228" y="-20" text-anchor="middle" font-family="Tahoma" font-size="14px" stroke="none" fill="#000000" style="-webkit-tap-highlight-color: rgba(0, 0, 0, 0); text-anchor: middle; font-family: Tahoma; font-size: 14px;"><tspan dy="-20" style="-webkit-tap-highlight-color: rgba(0, 0, 0, 0);"/></text><rect x="202" y="-32" width="52" height="92" rx="0" ry="0" fill="#008000" stroke="none" opacity="0" fill-opacity="0.35" transform="matrix(1,0,0,1,0,0)" style="-webkit-tap-highlight-color: rgba(0, 0, 0, 0); opacity: 0; fill-opacity: 0.35;"/><circle cx="228" cy="160" r="3.25" fill="#666666" stroke="#888888" stroke-width="1" opacity="1" style="-webkit-tap-highlight-color: rgba(0, 0, 0, 0); opacity: 1;"/><rect x="730" y="-32" width="52" height="92" rx="5" ry="5" fill="#808080" stroke="none" opacity="0" fill-opacity="0.35" style="-webkit-tap-highlight-color: rgba(0, 0, 0, 0); opacity: 0; fill-opacity: 0.35;"/><circle cx="756" cy="0" r="6.5" fill="#dc7868" stroke="#000000" stroke-width="2" style="-webkit-tap-highlight-color: rgba(0, 0, 0, 0);"/><text x="756" y="-20" text-anchor="middle" font-family="Tahoma" font-size="14px" stroke="none" fill="#000000" style="-webkit-tap-highlight-color: rgba(0, 0, 0, 0); text-anchor: middle; font-family: Tahoma; font-size: 14px;"><tspan dy="-20" style="-webkit-tap-highlight-color: rgba(0, 0, 0, 0);"/></text><rect x="730" y="-32" width="52" height="92" rx="0" ry="0" fill="#008000" stroke="none" opacity="0" fill-opacity="0.35" transform="matrix(1,0,0,1,0,0)" style="-webkit-tap-highlight-color: rgba(0, 0, 0, 0); opacity: 0; fill-opacity: 0.35;"/><circle cx="756" cy="160" r="3.25" fill="#666666" stroke="#888888" stroke-width="1" opacity="1" style="-webkit-tap-highlight-color: rgba(0, 0, 0, 0); opacity: 1;"/><rect x="466" y="240" width="52" height="92" rx="5" ry="5" fill="#808080" stroke="none" opacity="0" fill-opacity="0.35" style="-webkit-tap-highlight-color: rgba(0, 0, 0, 0); opacity: 0; fill-opacity: 0.35;"/><circle cx="492" cy="272" r="6.5" fill="#dc7868" stroke="#000000" stroke-width="2" style="-webkit-tap-highlight-color: rgba(0, 0, 0, 0);"/><text x="492" y="252" text-anchor="middle" font-family="Tahoma" font-size="14px" stroke="none" fill="#000000" style="-webkit-tap-highlight-color: rgba(0, 0, 0, 0); text-anchor: middle; font-family: Tahoma; font-size: 14px;"><tspan dy="252" style="-webkit-tap-highlight-color: rgba(0, 0, 0, 0);"/></text><rect x="466" y="240" width="52" height="92" rx="0" ry="0" fill="#008000" stroke="none" opacity="0" fill-opacity="0.35" transform="matrix(1,0,0,1,0,0)" style="-webkit-tap-highlight-color: rgba(0, 0, 0, 0); opacity: 0; fill-opacity: 0.35;"/><circle cx="492" cy="432" r="3.25" fill="#666666" stroke="#888888" stroke-width="1" opacity="1" style="-webkit-tap-highlight-color: rgba(0, 0, 0, 0); opacity: 1;"/></svg>