<svg xmlns="http://www.w3.org/2000/svg" xmlns:xlink="http://www.w3.org/1999/xlink" version="1.1" style="overflow: hidden; position: relative; top: -0.78125px;" viewBox="-30 -90 828 724" width="828" height="724" preserveAspectRatio="xMinYMin"><path fill="none" stroke="#333333" d="M300,272L300,432" stroke-width="3" style="-webkit-tap-highlight-color: rgba(0, 0, 0, 0);"/><path fill="none" stroke="#333333" d="M60,432L540,432" stroke-width="3" style="-webkit-tap-highlight-color: rgba(0, 0, 0, 0);"/><path fill="none" stroke="#333333" d="M540,432L540,544" stroke-width="3" style="-webkit-tap-highlight-color: rgba(0, 0, 0, 0);"/><path fill="none" stroke="#333333" d="M300,432L300,544" stroke-width="3" style="-webkit-tap-highlight-color: rgba(0, 0, 0, 0);"/><path fill="none" stroke="#333333" d="M60,432L60,544" stroke-width="3" style="-webkit-tap-highlight-color: rgba(0, 0, 0, 0);"/><path fill="none" stroke="#333333" d="M156,272L300,272" stroke-width="3" style="-webkit-tap-highlight-color: rgba(0, 0, 0, 0);"/><path fill="none" stroke="#333333" d="M300,272L444,272" stroke-width="3" style="-webkit-tap-highlight-color: rgba(0, 0, 0, 0);"/><path fill="none" stroke="#333333" d="M564,0L564,160" stroke-width="3" style="-webkit-tap-highlight-color: rgba(0, 0, 0, 0);"/><path fill="none" stroke="#333333" d="M444,160L684,160" stroke-width="3" style="-webkit-tap-highlight-color: rgba(0, 0, 0, 0);"/><path fill="none" stroke="#333333" d="M684,160L684,272" stroke-width="3" style="-webkit-tap-highlight-color: rgba(0, 0, 0, 0);"/><path fill="none" stroke="#333333" d="M444,160L444,272" stroke-width="3" style="-webkit-tap-highlight-color: rgba(0, 0, 0, 0);"/><path fill="none" stroke="#333333" d="M564,0L708,0" stroke-width="3" style="-webkit-tap-highlight-color: rgba(0, 0, 0, 0);"/><path fill="none" stroke="#333333" d="M420,0L564,0" stroke-width="3" style="-webkit-tap-highlight-color: rgba(0, 0, 0, 0);"/><desc style="-webkit-tap-highlight-color: rgba(0, 0, 0, 0);">Created with Raphaël 2.3.0</desc><defs style="-webkit-tap-highlight-color: rgba(0, 0, 0, 0);"><linearGradient id="7l8gq0-_ffffff:0-_B8B8B8:100" x1="0" y1="0" x2="1" y2="0" gradientTransform="matrix(1,0,0,1,0,0)" style="-webkit-tap-highlight-color: rgba(0, 0, 0, 0);"><stop offset="0%" stop-color="#ffffff" stop-opacity="1" style="-webkit-tap-highlight-color: rgba(0, 0, 0, 0);"/><stop offset="100%" stop-color="#b8b8b8" stop-opacity="1" style="-webkit-tap-highlight-color: rgba(0, 0, 0, 0);"/></linearGradient><linearGradient id="y16220-_ffffff:0-_B8B8B8:100" x1="0" y1="0" x2="1" y2="0" gradientTransform="matrix(1,0,0,1,0,0)" style="-webkit-tap-highlight-color: rgba(0, 0, 0, 0);"><stop offset="0%" stop-color="#ffffff" stop-opacity="1" style="-webkit-tap-highlight-color: rgba(0, 0, 0, 0);"/><stop offset="100%" stop-color="#b8b8b8" stop-opacity="1" style="-webkit-tap-highlight-color: rgba(0, 0, 0, 0);"/></linearGradient><linearGradient id="e3hd00-_ffffff:0-_B8B8B8:100" x1="0" y1="0" x2="1" y2="0" gradientTransform="matrix(1,0,0,1,0,0)" style="-webkit-tap-highlight-color: rgba(0, 0, 0, 0);"><stop offset="0%" stop-color="#ffffff" stop-opacity="1" style="-webkit-tap-highlight-color: rgba(0, 0, 0, 0);"/><stop offset="100%" stop-color="#b8b8b8" stop-opacity="1" style="-webkit-tap-highlight-color: rgba(0, 0, 0, 0);"/></linearGradient><linearGradient id="3l4hy0-_ffffff:0-_B8B8B8:100" x1="0" y1="0" x2="1" y2="0" gradientTransform="matrix(1,0,0,1,0,0)" style="-webkit-tap-highlight-color: rgba(0, 0, 0, 0);"><stop offset="0%" stop-color="#ffffff" stop-opacity="1" style="-webkit-tap-highlight-color: rgba(0, 0, 0, 0);"/><stop offset="100%" stop-color="#b8b8b8" stop-opacity="1" style="-webkit-tap-highlight-color: rgba(0, 0, 0, 0);"/></linearGradient><linearGradient id="42mt70-_ffffff:0-_B8B8B8:100" x1="0" y1="0" x2="1" y2="0" gradientTransform="matrix(1,0,0,1,0,0)" style="-webkit-tap-highlight-color: rgba(0, 0, 0, 0);"><stop offset="0%" stop-color="#ffffff" stop-opacity="1" style="-webkit-tap-highlight-color: rgba(0, 0, 0, 0);"/><stop offset="100%" stop-color="#b8b8b8" stop-opacity="1" style="-webkit-tap-highlight-color: rgba(0, 0, 0, 0);"/></linearGradient><linearGradient id="u254d0-_ffffff:0-_B8B8B8:100" x1="0" y1="0" x2="1" y2="0" gradientTransform="matrix(1,0,0,1,0,0)" style="-webkit-tap-highlight-color: rgba(0, 0, 0, 0);"><stop offset="0%" stop-color="#ffffff" stop-opacity="1" style="-webkit-tap-highlight-color: rgba(0, 0, 0, 0);"/><stop offset="100%" stop-color="#b8b8b8" stop-opacity="1" style="-webkit-tap-highlight-color: rgba(0, 0, 0, 0);"/></linearGradient><linearGradient id="bpjfi0-_ffffff:0-_B8B8B8:100" x1="0" y1="0" x2="1" y2="0" gradientTransform="matrix(1,0,0,1,0,0)" style="-webkit-tap-highlight-color: rgba(0, 0, 0, 0);"><stop offset="0%" stop-color="#ffffff" stop-opacity="1" style="-webkit-tap-highlight-color: rgba(0, 0, 0, 0);"/><stop offset="100%" stop-color="#b8b8b8" stop-opacity="1" style="-webkit-tap-highlight-color: rgba(0, 0, 0, 0);"/></linearGradient><linearGradient id="qy3uj0-_ffffff:0-_B8B8B8:100" x1="0" y1="0" x2="1" y2="0" gradientTransform="matrix(1,0,0,1,0,0)" style="-webkit-tap-highlight-color: rgba(0, 0, 0, 0);"><stop offset="0%" stop-color="#ffffff" stop-opacity="1" style="-webkit-tap-highlight-color: rgba(0, 0, 0, 0);"/><stop offset="100%" stop-color="#b8b8b8" stop-opacity="1" style="-webkit-tap-highlight-color: rgba(0, 0, 0, 0);"/></linearGradient><linearGradient id="4ax7e0-_ffffff:0-_B8B8B8:100" x1="0" y1="0" x2="1" y2="0" gradientTransform="matrix(1,0,0,1,0,0)" style="-webkit-tap-highlight-color: rgba(0, 0, 0, 0);"><stop offset="0%" stop-color="#ffffff" stop-opacity="1" style="-webkit-tap-highlight-color: rgba(0, 0, 0, 0);"/><stop offset="100%" stop-color="#b8b8b8" stop-opacity="1" style="-webkit-tap-highlight-color: rgba(0, 0, 0, 0);"/></linearGradient><linearGradient id="ydspr0-_ffffff:0-_B8B8B8:100" x1="0" y1="0" x2="1" y2="0" gradientTransform="matrix(1,0,0,1,0,0)" style="-webkit-tap-highlight-color: rgba(0, 0, 0, 0);"><stop offset="0%" stop-color="#ffffff" stop-opacity="1" style="-webkit-tap-highlight-color: rgba(0, 0, 0, 0);"/><stop offset="100%" stop-color="#b8b8b8" stop-opacity="1" style="-webkit-tap-highlight-color: rgba(0, 0, 0, 0);"/></linearGradient><linearGradient id="dloda0-_ffffff:0-_B8B8B8:100" x1="0" y1="0" x2="1" y2="0" gradientTransform="matrix(1,0,0,1,0,0)" style="-webkit-tap-highlight-color: rgba(0, 0, 0, 0);"><stop offset="0%" stop-color="#ffffff" stop-opacity="1" style="-webkit-tap-highlight-color: rgba(0, 0, 0, 0);"/><stop offset="100%" stop-color="#b8b8b8" stop-opacity="1" style="-webkit-tap-highlight-color: rgba(0, 0, 0, 0);"/></linearGradient><linearGradient id="6mvv10-_ffffff:0-_B8B8B8:100" x1="0" y1="0" x2="1" y2="0" gradientTransform="matrix(1,0,0,1,0,0)" style="-webkit-tap-highlight-color: rgba(0, 0, 0, 0);"><stop offset="0%" stop-color="#ffffff" stop-opacity="1" style="-webkit-tap-highlight-color: rgba(0, 0, 0, 0);"/><stop offset="100%" stop-color="#b8b8b8" stop-opacity="1" style="-webkit-tap-highlight-color: rgba(0, 0, 0, 0);"/></linearGradient><linearGradient id="zxgmq0-_ffffff:0-_B8B8B8:100" x1="0" y1="0" x2="1" y2="0" gradientTransform="matrix(1,0,0,1,0,0)" style="-webkit-tap-highlight-color: rgba(0, 0, 0, 0);"><stop offset="0%" stop-color="#ffffff" stop-opacity="1" style="-webkit-tap-highlight-color: rgba(0, 0, 0, 0);"/><stop offset="100%" stop-color="#b8b8b8" stop-opacity="1" style="-webkit-tap-highlight-color: rgba(0, 0, 0, 0);"/></linearGradient><linearGradient id="lw2gs0-_ffffff:0-_B8B8B8:100" x1="0" y1="0" x2="1" y2="0" gradientTransform="matrix(1,0,0,1,0,0)" style="-webkit-tap-highlight-color: rgba(0, 0, 0, 0);"><stop offset="0%" stop-color="#ffffff" stop-opacity="1" style="-webkit-tap-highlight-color: rgba(0, 0, 0, 0);"/><stop offset="100%" stop-color="#b8b8b8" stop-opacity="1" style="-webkit-tap-highlight-color: rgba(0, 0, 0, 0);"/></linearGradient><linearGradient id="l1ox50-_ffffff:0-_B8B8B8:100" x1="0" y1="0" x2="1" y2="0" gradientTransform="matrix(1,0,0,1,0,0)" style="-webkit-tap-highlight-color: rgba(0, 0, 0, 0);"><stop offset="0%" stop-color="#ffffff" stop-opacity="1" style="-webkit-tap-highlight-color: rgba(0, 0, 0, 0);"/><stop offset="100%" stop-color="#b8b8b8" stop-opacity="1" style="-webkit-tap-highlight-color: rgba(0, 0, 0, 0);"/></linearGradient></defs><rect x="330" y="-90" width="180" height="180" rx="5" ry="5" fill="#808080" stroke="none" opacity="0" fill-opacity="0.35" style="-webkit-tap-highlight-color: rgba(0, 0, 0, 0); opacity: 0; fill-opacity: 0.35;"/><rect x="380" y="-40" width="80" height="80" rx="0" ry="0" fill="#808080" stroke="none" opacity="0.3" fill-opacity="1" stroke-width="3" transform="matrix(1,0,0,1,3,3)" style="-webkit-tap-highlight-color: rgba(0, 0, 0, 0); opacity: 0.3; fill-opacity: 1;"/><rect x="380" y="-40" width="80" height="80" rx="0" ry="0" fill="url('#7l8gq0-_ffffff:0-_B8B8B8:100')" stroke="#333333" opacity="1" fill-opacity="1" stroke-width="3" style="-webkit-tap-highlight-color: rgba(0, 0, 0, 0); opacity: 1; fill-opacity: 1;"/><text x="420" y="72" text-anchor="middle" font-family="Arial" font-size="20px" stroke="none" fill="#000000" style="-webkit-tap-highlight-color: rgba(0, 0, 0, 0); text-anchor: middle; font-family: Arial; font-size: 20px;" class="pii-name" transform="matrix(1,0,0,1,0,0)"><tspan dy="6.666664123535156" style="-webkit-tap-highlight-color: rgba(0, 0, 0, 0);">GF</tspan></text><rect x="330" y="-90" width="180" height="180" rx="0" ry="0" fill="#008000" stroke="none" opacity="0" fill-opacity="0.35" transform="matrix(1,0,0,1,0,0)" style="-webkit-tap-highlight-color: rgba(0, 0, 0, 0); opacity: 0; fill-opacity: 0.35;"/><rect x="618" y="-90" width="180" height="180" rx="5" ry="5" fill="#808080" stroke="none" opacity="0" fill-opacity="0.35" style="-webkit-tap-highlight-color: rgba(0, 0, 0, 0); opacity: 0; fill-opacity: 0.35;"/><circle cx="708" cy="0" r="40" fill="#808080" stroke="none" opacity="0.3" fill-opacity="1" stroke-width="3" transform="matrix(1,0,0,1,3,3)" style="-webkit-tap-highlight-color: rgba(0, 0, 0, 0); opacity: 0.3; fill-opacity: 1;"/><circle cx="708" cy="0" r="40" fill="url('#e3hd00-_ffffff:0-_B8B8B8:100')" stroke="#333333" opacity="1" fill-opacity="1" stroke-width="3" style="-webkit-tap-highlight-color: rgba(0, 0, 0, 0); opacity: 1; fill-opacity: 1;"/><text x="708" y="72" text-anchor="middle" font-family="Arial" font-size="20px" stroke="none" fill="#000000" style="-webkit-tap-highlight-color: rgba(0, 0, 0, 0); text-anchor: middle; font-family: Arial; font-size: 20px;" class="pii-name" transform="matrix(1,0,0,1,0,0)"><tspan dy="6.666664123535156" style="-webkit-tap-highlight-color: rgba(0, 0, 0, 0);">GM</tspan></text><rect x="618" y="-90" width="180" height="180" rx="0" ry="0" fill="#008000" stroke="none" opacity="0" fill-opacity="0.35" transform="matrix(1,0,0,1,0,0)" style="-webkit-tap-highlight-color: rgba(0, 0, 0, 0); opacity: 0; fill-opacity: 0.35;"/><rect x="66" y="182" width="180" height="180" rx="5" ry="5" fill="#808080" stroke="none" opacity="0" fill-opacity="0.35" style="-webkit-tap-highlight-color: rgba(0, 0, 0, 0); opacity: 0; fill-opacity: 0.35;"/><rect x="116" y="232" width="80" height="80" rx="0" ry="0" fill="#808080" stroke="none" opacity="0.3" fill-opacity="1" stroke-width="3" transform="matrix(1,0,0,1,3,3)" style="-webkit-tap-highlight-color: rgba(0, 0, 0, 0); opacity: 0.3; fill-opacity: 1;"/><rect x="116" y="232" width="80" height="80" rx="0" ry="0" fill="url('#42mt70-_ffffff:0-_B8B8B8:100')" stroke="#333333" opacity="1" fill-opacity="1" stroke-width="3" style="-webkit-tap-highlight-color: rgba(0, 0, 0, 0); opacity: 1; fill-opacity: 1;"/><text x="156" y="344" text-anchor="middle" font-family="Arial" font-size="20px" stroke="none" fill="#000000" style="-webkit-tap-highlight-color: rgba(0, 0, 0, 0); text-anchor: middle; font-family: Arial; font-size: 20px;" class="pii-name" transform="matrix(1,0,0,1,0,0)"><tspan dy="6.666656494140625" style="-webkit-tap-highlight-color: rgba(0, 0, 0, 0);">Father</tspan></text><rect x="66" y="182" width="180" height="180" rx="0" ry="0" fill="#008000" stroke="none" opacity="0" fill-opacity="0.35" transform="matrix(1,0,0,1,0,0)" style="-webkit-tap-highlight-color: rgba(0, 0, 0, 0); opacity: 0; fill-opacity: 0.35;"/><rect x="354" y="182" width="180" height="180" rx="5" ry="5" fill="#808080" stroke="none" opacity="0" fill-opacity="0.35" style="-webkit-tap-highlight-color: rgba(0, 0, 0, 0); opacity: 0; fill-opacity: 0.35;"/><circle cx="444" cy="272" r="40" fill="#808080" stroke="none" opacity="0.3" fill-opacity="1" stroke-width="3" transform="matrix(1,0,0,1,3,3)" style="-webkit-tap-highlight-color: rgba(0, 0, 0, 0); opacity: 0.3; fill-opacity: 1;"/><circle cx="444" cy="272" r="40" fill="url('#bpjfi0-_ffffff:0-_B8B8B8:100')" stroke="#333333" opacity="1" fill-opacity="1" stroke-width="3" style="-webkit-tap-highlight-color: rgba(0, 0, 0, 0); opacity: 1; fill-opacity: 1;"/><text x="444" y="344" text-anchor="middle" font-family="Arial" font-size="20px" stroke="none" fill="#000000" style="-webkit-tap-highlight-color: rgba(0, 0, 0, 0); text-anchor: middle; font-family: Arial; font-size: 20px;" class="pii-name" transform="matrix(1,0,0,1,0,0)"><tspan dy="6.666656494140625" style="-webkit-tap-highlight-color: rgba(0, 0, 0, 0);">Mother</tspan></text><rect x="354" y="182" width="180" height="180" rx="0" ry="0" fill="#008000" stroke="none" opacity="0" fill-opacity="0.35" transform="matrix(1,0,0,1,0,0)" style="-webkit-tap-highlight-color: rgba(0, 0, 0, 0); opacity: 0; fill-opacity: 0.35;"/><rect x="594" y="182" width="180" height="180" rx="5" ry="5" fill="#808080" stroke="none" opacity="0" fill-opacity="0.35" style="-webkit-tap-highlight-color: rgba(0, 0, 0, 0); opacity: 0; fill-opacity: 0.35;"/><circle cx="684" cy="272" r="40" fill="#808080" stroke="none" opacity="0.3" fill-opacity="1" stroke-width="3" transform="matrix(1,0,0,1,3,3)" style="-webkit-tap-highlight-color: rgba(0, 0, 0, 0); opacity: 0.3; fill-opacity: 1;"/><circle cx="684" cy="272" r="40" fill="url('#4ax7e0-_ffffff:0-_B8B8B8:100')" stroke="#333333" opacity="1" fill-opacity="1" stroke-width="3" style="-webkit-tap-highlight-color: rgba(0, 0, 0, 0); opacity: 1; fill-opacity: 1;"/><text x="684" y="344" text-anchor="middle" font-family="Arial" font-size="20px" stroke="none" fill="#000000" style="-webkit-tap-highlight-color: rgba(0, 0, 0, 0); text-anchor: middle; font-family: Arial; font-size: 20px;" class="pii-name" transform="matrix(1,0,0,1,0,0)"><tspan dy="6.666656494140625" style="-webkit-tap-highlight-color: rgba(0, 0, 0, 0);">Aunt</tspan></text><rect x="594" y="182" width="180" height="180" rx="0" ry="0" fill="#008000" stroke="none" opacity="0" fill-opacity="0.35" transform="matrix(1,0,0,1,0,0)" style="-webkit-tap-highlight-color: rgba(0, 0, 0, 0); opacity: 0; fill-opacity: 0.35;"/><rect x="450" y="454" width="180" height="180" rx="5" ry="5" fill="#808080" stroke="none" opacity="0" fill-opacity="0.35" style="-webkit-tap-highlight-color: rgba(0, 0, 0, 0); opacity: 0; fill-opacity: 0.35;"/><rect x="500" y="504" width="80" height="80" rx="0" ry="0" fill="#808080" stroke="none" opacity="0.3" fill-opacity="1" stroke-width="3" transform="matrix(1,0,0,1,3,3)" style="-webkit-tap-highlight-color: rgba(0, 0, 0, 0); opacity: 0.3; fill-opacity: 1;"/><rect x="500" y="504" width="80" height="80" rx="0" ry="0" fill="url('#dloda0-_ffffff:0-_B8B8B8:100')" stroke="#333333" opacity="1" fill-opacity="1" stroke-width="3" style="-webkit-tap-highlight-color: rgba(0, 0, 0, 0); opacity: 1; fill-opacity: 1;"/><text x="540" y="616" text-anchor="middle" font-family="Arial" font-size="20px" stroke="none" fill="#000000" style="-webkit-tap-highlight-color: rgba(0, 0, 0, 0); text-anchor: middle; font-family: Arial; font-size: 20px;" class="pii-name" transform="matrix(1,0,0,1,0,0)"><tspan dy="6.6666259765625" style="-webkit-tap-highlight-color: rgba(0, 0, 0, 0);">Child1</tspan></text><rect x="450" y="454" width="180" height="180" rx="0" ry="0" fill="#008000" stroke="none" opacity="0" fill-opacity="0.35" transform="matrix(1,0,0,1,0,0)" style="-webkit-tap-highlight-color: rgba(0, 0, 0, 0); opacity: 0; fill-opacity: 0.35;"/><rect x="210" y="454" width="180" height="180" rx="5" ry="5" fill="#808080" stroke="none" opacity="0" fill-opacity="0.35" style="-webkit-tap-highlight-color: rgba(0, 0, 0, 0); opacity: 0; fill-opacity: 0.35;"/><rect x="260" y="504" width="80" height="80" rx="0" ry="0" fill="#808080" stroke="none" opacity="0.3" fill-opacity="1" stroke-width="3" transform="matrix(1,0,0,1,3,3)" style="-webkit-tap-highlight-color: rgba(0, 0, 0, 0); opacity: 0.3; fill-opacity: 1;"/><rect x="260" y="504" width="80" height="80" rx="0" ry="0" fill="url('#zxgmq0-_ffffff:0-_B8B8B8:100')" stroke="#333333" opacity="1" fill-opacity="1" stroke-width="5.092592592592593" style="-webkit-tap-highlight-color: rgba(0, 0, 0, 0); opacity: 1; fill-opacity: 1;" transform="matrix(1.08,0,0,1.08,-24,-43.52)"/><path fill="#595959" stroke="none" d="M9.182800000000002,25.3319C9.182800000000002,25.3319,0.8701000000000001,33.6424,0.8701000000000001,33.6424C0.8701000000000001,33.6424,3.8665000000000003,36.6388,3.8665000000000003,36.6388C3.8665000000000003,36.6388,12.177000000000001,28.3272,12.17744,28.3272C12.177000000000001,28.3272,14.425400000000002,30.574500000000004,14.425400000000002,30.574500000000004C14.425400000000002,30.574500000000004,17.1578,20.376400000000004,17.1578,20.376400000000004C17.1578,20.376400000000004,6.959700000000001,23.108800000000002,6.959700000000001,23.108800000000002C6.959700000000001,23.108800000000002,9.182800000000002,25.3319,9.182800000000002,25.331350000000004C9.182800000000002,25.3319,9.182800000000002,25.3319,9.182800000000002,25.3319" opacity="1" transform="matrix(1,0,0,1,234,572)" style="-webkit-tap-highlight-color: rgba(0, 0, 0, 0); opacity: 1;"/><text x="225" y="605" text-anchor="middle" font-family="Arial" font-size="22px" stroke="none" fill="#595959" style="-webkit-tap-highlight-color: rgba(0, 0, 0, 0); text-anchor: middle; font-family: Arial; font-size: 22px; font-weight: bold;" font-weight="bold"><tspan dy="7.3333330154418945" style="-webkit-tap-highlight-color: rgba(0, 0, 0, 0);">P</tspan></text><path fill="#e0f8f8" stroke="none" d="M339.4,544L300,544L339.4,544L339.4,504.6L260.6,504.6L260.6,583.4L339.4,583.4L339.4,544Z" stroke-width="0" transform="matrix(1.04,0,0,1.04,-12,-21.76)" style="-webkit-tap-highlight-color: rgba(0, 0, 0, 0);"/><text x="300" y="616" text-anchor="middle" font-family="Arial" font-size="20px" stroke="none" fill="#000000" style="-webkit-tap-highlight-color: rgba(0, 0, 0, 0); text-anchor: middle; font-family: Arial; font-size: 20px;" class="pii-name" transform="matrix(1,0,0,1,0,0)"><tspan dy="6.6666259765625" style="-webkit-tap-highlight-color: rgba(0, 0, 0, 0);">Child2</tspan></text><rect x="210" y="454" width="180" height="180" rx="0" ry="0" fill="#008000" stroke="none" opacity="0" fill-opacity="0.35" transform="matrix(1,0,0,1,0,0)" style="-webkit-tap-highlight-color: rgba(0, 0, 0, 0); opacity: 0; fill-opacity: 0.35;"/><rect x="-30" y="454" width="180" height="180" rx="5" ry="5" fill="#808080" stroke="none" opacity="0" fill-opacity="0.35" style="-webkit-tap-highlight-color: rgba(0, 0, 0, 0); opacity: 0; fill-opacity: 0.35;"/><path fill="#000000" stroke="#000000" d="M7.084973778708189,544C7.084973778708189,544,60,491.0849737787082,60,491.0849737787082C60,491.0849737787082,112.91502622129181,544,112.91502622129181,544C112.91502622129181,544,7.084973778708189,544,7.084973778708189,544" stroke-linejoin="round" stroke-linecap="round" stroke-width="2" opacity="0.025" transform="matrix(1,0,0,1,3,3)" style="-webkit-tap-highlight-color: rgba(0, 0, 0, 0); stroke-linejoin: round; stroke-linecap: round; opacity: 0.025;"/><path fill="#000000" stroke="#000000" d="M7.084973778708189,544C7.084973778708189,544,60,491.0849737787082,60,491.0849737787082C60,491.0849737787082,112.91502622129181,544,112.91502622129181,544C112.91502622129181,544,7.084973778708189,544,7.084973778708189,544" stroke-linejoin="round" stroke-linecap="round" stroke-width="4" opacity="0.025" transform="matrix(1,0,0,1,3,3)" style="-webkit-tap-highlight-color: rgba(0, 0, 0, 0); stroke-linejoin: round; stroke-linecap: round; opacity: 0.025;"/><path fill="#000000" stroke="#000000" d="M7.084973778708189,544C7.084973778708189,544,60,491.0849737787082,60,491.0849737787082C60,491.0849737787082,112.91502622129181,544,112.91502622129181,544C112.91502622129181,544,7.084973778708189,544,7.084973778708189,544" stroke-linejoin="round" stroke-linecap="round" stroke-width="6" opacity="0.025" transform="matrix(1,0,0,1,3,3)" style="-webkit-tap-highlight-color: rgba(0, 0, 0, 0); stroke-linejoin: round; stroke-linecap: round; opacity: 0.025;"/><path fill="#000000" stroke="#000000" d="M7.084973778708189,544C7.084973778708189,544,60,491.0849737787082,60,491.0849737787082C60,491.0849737787082,112.91502622129181,544,112.91502622129181,544C112.91502622129181,544,7.084973778708189,544,7.084973778708189,544" stroke-linejoin="round" stroke-linecap="round" stroke-width="8" opacity="0.025" transform="matrix(1,0,0,1,3,3)" style="-webkit-tap-highlight-color: rgba(0, 0, 0, 0); stroke-linejoin: round; stroke-linecap: round; opacity: 0.025;"/><path fill="url('#l1ox50-_ffffff:0-_B8B8B8:100')" stroke="#333333" d="M7.084973778708189,544L60,491.0849737787082L112.91502622129181,544Z" opacity="1" fill-opacity="1" stroke-width="3" style="-webkit-tap-highlight-color: rgba(0, 0, 0, 0); opacity: 1; fill-opacity: 1;"/><text x="60" y="616" text-anchor="middle" font-family="Arial" font-size="20px" stroke="none" fill="#000000" style="-webkit-tap-highlight-color: rgba(0, 0, 0, 0); text-anchor: middle; font-family: Arial; font-size: 20px;" class="pii-name" transform="matrix(1,0,0,1,0,0)"><tspan dy="6.6666259765625" style="-webkit-tap-highlight-color: rgba(0, 0, 0, 0);">Loss</tspan></text><rect x="-30" y="454" width="180" height="180" rx="0" ry="0" fill="#008000" stroke="none" opacity="0" fill-opacity="0.35" transform="matrix(1,0,0,1,0,0)" style="-webkit-tap-highlight-color: rgba(0, 0, 0, 0); opacity: 0; fill-opacity: 0.35;"/><rect x="538" y="-32" width="52" height="92" rx="5" ry="5" fill="#808080" stroke="none" opacity="0" fill-opacity="0.35" style="-webkit-tap-highlight-color: rgba(0, 0, 0, 0); opacity: 0; fill-opacity: 0.35;"/><circle cx="564" cy="0" r="6.5" fill="#dc7868" stroke="#000000" stroke-width="2" style="-webkit-tap-highlight-color: rgba(0, 0, 0, 0);"/><text x="564" y="-20" text-anchor="middle" font-family="Tahoma" font-size="14px" stroke="none" fill="#000000" style="-webkit-tap-highlight-color: rgba(0, 0, 0, 0); text-anchor: middle; font-family: Tahoma; font-size: 14px;"><tspan dy="-20" style="-webkit-tap-highlight-color: rgba(0, 0, 0, 0);"/></text><rect x="538" y="-32" width="52" height="92" rx="0" ry="0" fill="#008000" stroke="none" opacity="0" fill-opacity="0.35" transform="matrix(1,0,0,1,0,0)" style="-webkit-tap-highlight-color: rgba(0, 0, 0, 0); opacity: 0; fill-opacity: 0.35;"/><circle cx="564" cy="160" r="3.25" fill="#666666" stroke="#888888" stroke-width="1" opacity="1" style="-webkit-tap-highlight-color: rgba(0, 0, 0, 0); opacity: 1;"/><rect x="274" y="240" width="52" height="92" rx="5" ry="5" fill="#808080" stroke="none" opacity="0" fill-opacity="0.35" style="-webkit-tap-highlight-color: rgba(0, 0, 0, 0); opacity: 0; fill-opacity: 0.35;"/><circle cx="300" cy="272" r="6.5" fill="#dc7868" stroke="#000000" stroke-width="2" style="-webkit-tap-highlight-color: rgba(0, 0, 0, 0);"/><text x="300" y="252" text-anchor="middle" font-family="Tahoma" font-size="14px" stroke="none" fill="#000000" style="-webkit-tap-highlight-color: rgba(0, 0, 0, 0); text-anchor: middle; font-family: Tahoma; font-size: 14px;"><tspan dy="252" style="-webkit-tap-highlight-color: rgba(0, 0, 0, 0);"/></text><rect x="274" y="240" width="52" height="92" rx="0" ry="0" fill="#008000" stroke="none" opacity="0" fill-opacity="0.35" transform="matrix(1,0,0,1,0,0)" style="-webkit-tap-highlight-color: rgba(0, 0, 0, 0); opacity: 0; fill-opacity: 0.35;"/><circle cx="300" cy="432" r="3.25" fill="#666666" stroke="#888888" stroke-width="1" opacity="1" style="-webkit-tap-highlight-color: rgba(0, 0, 0, 0); opacity: 1;"/></svg>